<?xml version="1.0" encoding="UTF-8"?>
<svg width="137px" height="42px" viewBox="0 0 137 42" version="1.1" xmlns="http://www.w3.org/2000/svg" xmlns:xlink="http://www.w3.org/1999/xlink">
    <!-- Generator: sketchtool 61.2 (101010) - https://sketch.com -->
    <title>CBE3F1DE-C58E-4403-A222-400CEE488917</title>
    <desc>Created with sketchtool.</desc>
    <g id="Version-1" stroke="none" stroke-width="1" fill="none" fill-rule="evenodd">
        <g id="16-18-Components-•-Icons" transform="translate(-359.000000, -2015.000000)" fill-rule="nonzero">
            <g id="apple" transform="translate(360.000000, 2016.000000)">
                <path d="M8.66869502,40.4979086 C8.329849,40.4979086 7.98842084,40.4941195 7.62745705,40.4866842 C6.88795985,40.4778836 6.15017032,40.4190809 5.41580031,40.3100926 C4.7104307,40.1991333 4.02672923,39.9926115 3.38692948,39.6970704 C2.74798623,39.4016617 2.16442219,39.0137842 1.6634783,38.5523381 C1.14816693,38.0899998 0.718382352,37.5528111 0.391973582,36.9626995 C0.0625133172,36.3697359 -0.165781126,35.7333467 -0.284564954,35.076314 C-0.407284811,34.4009065 -0.473688884,33.7178854 -0.482968621,33.0426943 C-0.485220286,32.9656509 -0.485220286,32.9656509 -0.487455656,32.8626618 C-0.490026598,32.7317145 -0.490026598,32.7317145 -0.49245649,32.5880175 C-0.49560797,32.3966711 -0.498306495,32.2055206 -0.5,32.0714211 L-0.499951022,7.90823752 C-0.498206322,7.78359778 -0.495404908,7.59688966 -0.492224872,7.41001391 C-0.490445633,7.30712731 -0.490445633,7.30712731 -0.488604437,7.20916087 C-0.485713672,7.06567441 -0.484601185,7.01694855 -0.483137689,6.97316412 C-0.474038135,6.289452 -0.408010859,5.60739425 -0.285710564,4.93332459 C-0.166685674,4.27437247 0.0616784747,3.63644708 0.390680331,3.04269039 C0.71609664,2.45261262 1.14318036,1.91541867 1.6530808,1.45352485 C2.16138566,0.988169024 2.7455727,0.59912247 3.38668103,0.299135763 C4.02528801,0.0044160743 4.70814938,-0.200784713 5.41514926,-0.310187737 C6.14778913,-0.419632759 6.88832208,-0.478799836 7.63004404,-0.487193854 L8.66925601,-0.5 L126.331497,-0.499959657 L127.375946,-0.486690201 C128.111805,-0.478703432 128.845977,-0.420034919 129.574778,-0.310790411 C130.285414,-0.200554205 130.974507,0.0058133109 131.62403,0.303798374 C132.905035,0.906788717 133.950344,1.86350477 134.614212,3.04606034 C134.938424,3.63656014 135.16325,4.26923721 135.280569,4.92139163 C135.404155,5.60005638 135.47333,6.28613036 135.487604,6.97881386 C135.490261,7.2158295 135.490936,7.43920758 135.490955,7.85346453 C135.490956,7.88436078 135.490956,7.88436078 135.490823,7.90370664 C135.497649,8.19966108 135.499777,8.47503062 135.499975,8.89929205 C135.5,8.97815294 135.5,8.97815294 135.5,9.05691729 L135.5,30.9419638 C135.5,31.3702594 135.499357,31.5585084 135.496105,31.7956248 C135.494766,31.8932005 135.493022,31.9869478 135.490956,32.0662972 C135.490956,32.4462633 135.490637,32.6072222 135.488992,32.8111334 C135.487951,32.9279064 135.487951,32.9279064 135.486385,33.0487593 C135.472482,33.7249953 135.404406,34.3993624 135.283281,35.0632604 C135.166878,35.7253352 134.93987,36.3665703 134.608273,36.9683422 C134.279919,37.5514037 133.853632,38.0826571 133.349437,38.5390385 C132.843239,39.0073495 132.258682,39.397472 131.617676,39.6950449 C130.97384,39.9928599 130.285171,40.2001943 129.57191,40.3106934 C128.841646,40.4196399 128.103525,40.4784671 127.368756,40.4866073 C127.020616,40.4939896 126.666758,40.4979086 126.331598,40.4979079 L125.089715,40.5 L8.66868604,40.4979086 Z" id="Shape" stroke="#444444" fill="#000000"></path>
                <path d="M32.76888,20.30068 C32.790737,18.6042091 33.6801229,17.0371861 35.12544,16.14862 C34.2095126,14.8405128 32.730392,14.0408784 31.13428,13.99094 C29.45504,13.81468 27.82709,14.99577 26.97138,14.99577 C26.09911,14.99577 24.78161,14.00844 23.36288,14.03763 C21.4962013,14.0979384 19.7981372,15.1335255 18.88996,16.7655 C16.95596,20.11392 18.39855,25.03497 20.25116,27.74158 C21.17806,29.06693 22.26134,30.54738 23.67879,30.49488 C25.06585,30.43735 25.58389,29.6104 27.25819,29.6104 C28.91695,29.6104 29.40298,30.49488 30.84919,30.4615 C32.33757,30.43734 33.27532,29.13026 34.1697,27.79236 C34.8356761,26.8479997 35.3481437,25.8042759 35.68812,24.69985 C33.9203766,23.9521813 32.7709432,22.2200343 32.76888,20.30068 L32.76888,20.30068 Z" id="_Path_" fill="#FFFFFF"></path>
                <path d="M30.03725,12.21089 C30.8487766,11.2366819 31.248585,9.98450245 31.15177,8.72027 C29.9119378,8.85049049 28.7666802,9.44304968 27.94419,10.37988 C27.1320187,11.304189 26.7205746,12.5134327 26.80048,13.74127 C28.0569368,13.7542068 29.2499161,13.1901532 30.03725,12.21089 L30.03725,12.21089 Z" id="_Path_2" fill="#FFFFFF"></path>
                <path d="M50.30227,27.13965 L45.56887,27.13965 L44.43215,30.4961 L42.42727,30.4961 L46.91067,18.0781 L48.99367,18.0781 L53.47707,30.4961 L51.438,30.4961 L50.30227,27.13965 Z M46.0591,25.59082 L49.8111,25.59082 L47.96149,20.14355 L47.90973,20.14355 L46.0591,25.59082 Z" id="Shape" fill="#FFFFFF"></path>
                <path d="M63.15969,25.96973 C63.15969,28.78321 61.65383,30.59082 59.38137,30.59082 C58.2067553,30.6522646 57.1003324,30.0370307 56.53274,29.00682 L56.48974,29.00682 L56.48974,33.4912 L54.63134,33.4912 L54.63134,21.44238 L56.4302,21.44238 L56.4302,22.94824 L56.46438,22.94824 C57.0571883,21.9244879 58.1648043,21.3095188 59.34719,21.34765 C61.645,21.34766 63.15969,23.16406 63.15969,25.96973 Z M61.24953,25.96973 C61.24953,24.13673 60.30226,22.93164 58.85695,22.93164 C57.43703,22.93164 56.48195,24.16211 56.48195,25.96973 C56.48195,27.79395 57.43703,29.01563 58.85695,29.01563 C60.30227,29.01563 61.24953,27.81934 61.24953,25.96973 Z" id="Shape" fill="#FFFFFF"></path>
                <path d="M73.12453,25.96973 C73.12453,28.78321 71.61867,30.59082 69.34621,30.59082 C68.1715953,30.6522646 67.0651724,30.0370307 66.49758,29.00682 L66.45458,29.00682 L66.45458,33.4912 L64.59618,33.4912 L64.59618,21.44238 L66.395,21.44238 L66.395,22.94824 L66.42918,22.94824 C67.0219926,21.9244885 68.1296128,21.3095231 69.312,21.34766 C71.60988,21.34766 73.12453,23.16406 73.12453,25.96973 Z M71.21438,25.96973 C71.21438,24.13673 70.2671,22.93164 68.82179,22.93164 C67.40187,22.93164 66.44679,24.16211 66.44679,25.96973 C66.44679,27.79395 67.40187,29.01563 68.82179,29.01563 C70.26711,29.01563 71.21438,27.81934 71.21438,25.96973 L71.21438,25.96973 Z" id="Shape" fill="#FFFFFF"></path>
                <path d="M79.71047,27.03613 C79.84817,28.26758 81.04447,29.07613 82.67922,29.07613 C84.24563,29.07613 85.37258,28.26754 85.37258,27.15718 C85.37258,26.19331 84.69289,25.61618 83.08352,25.22066 L81.47415,24.83296 C79.19388,24.28218 78.13528,23.21577 78.13528,21.4853 C78.13528,19.34272 80.00247,17.87104 82.65383,17.87104 C85.27783,17.87104 87.07668,19.34272 87.13723,21.4853 L85.26123,21.4853 C85.14893,20.24604 84.12451,19.498 82.62744,19.498 C81.13037,19.498 80.10596,20.25484 80.10596,21.3564 C80.10596,22.23433 80.76026,22.75093 82.36084,23.1464 L83.729,23.48234 C86.27685,24.08488 87.33545,25.10834 87.33545,26.92472 C87.33545,29.24796 85.48486,30.70304 82.5415,30.70304 C79.78759,30.70304 77.92822,29.28214 77.8081,27.03604 L79.71047,27.03613 Z" id="Shape" fill="#FFFFFF"></path>
                <path d="M91.34621,19.2998 L91.34621,21.44238 L93.06789,21.44238 L93.06789,22.91406 L91.34621,22.91406 L91.34621,27.90527 C91.34621,28.68066 91.69094,29.04199 92.44777,29.04199 C92.6521614,29.0384259 92.8562221,29.0240726 93.0591,28.99899 L93.0591,30.46188 C92.7188283,30.5254596 92.3729708,30.5542545 92.02687,30.54782 C90.19387,30.54782 89.47902,29.85934 89.47902,28.10348 L89.47902,22.91406 L88.16262,22.91406 L88.16262,21.44238 L89.479,21.44238 L89.479,19.2998 L91.34621,19.2998 Z" id="Shape" fill="#FFFFFF"></path>
                <path d="M94.065,25.96973 C94.065,23.1211 95.74273,21.33106 98.35895,21.33106 C100.98395,21.33106 102.65387,23.12106 102.65387,25.96973 C102.65387,28.82618 100.99274,30.6084 98.35895,30.6084 C95.72609,30.6084 94.065,28.82617 94.065,25.96973 Z M100.76031,25.96973 C100.76031,24.01563 99.8648,22.86231 98.35894,22.86231 C96.85308,22.86231 95.95855,24.02442 95.95855,25.96973 C95.95855,27.93164 96.85308,29.07618 98.35894,29.07618 C99.8648,29.07618 100.76031,27.93164 100.76031,25.96973 L100.76031,25.96973 Z" id="Shape" fill="#FFFFFF"></path>
                <path d="M104.18605,21.44238 L105.95852,21.44238 L105.95852,22.98338 L106.00152,22.98338 C106.248696,21.9913684 107.157653,21.3086316 108.17925,21.34764 C108.393414,21.3468922 108.606987,21.3701507 108.81597,21.41698 L108.81597,23.15526 C108.545601,23.0726433 108.26356,23.0347113 107.98097,23.04296 C107.434618,23.0207954 106.905871,23.2385347 106.533561,23.639006 C106.161252,24.0394772 105.982577,24.5826707 106.04445,25.12596 L106.04445,30.49608 L104.18605,30.49608 L104.18605,21.44238 Z" id="Shape" fill="#FFFFFF"></path>
                <path d="M117.3843,27.83691 C117.1343,29.48046 115.53371,30.60839 113.48586,30.60839 C110.85207,30.60839 109.21731,28.84374 109.21731,26.01269 C109.21731,23.17285 110.86086,21.33105 113.40774,21.33105 C115.91262,21.33105 117.48782,23.05175 117.48782,25.79687 L117.48782,26.43359 L111.09329,26.43359 L111.09329,26.54589 C111.033587,27.2199216 111.266332,27.8871194 111.73232,28.3777699 C112.198308,28.8684204 112.852627,29.1352333 113.52884,29.11034 C114.430682,29.1948396 115.280943,28.6769777 115.61966,27.8369 L117.3843,27.83691 Z M111.102062,25.13477 L115.62844,25.13477 C115.662165,24.5290975 115.441697,23.9368231 115.02015,23.5006315 C114.598604,23.06444 114.014201,22.8238804 113.40774,22.83691 C112.796482,22.8332622 112.209091,23.0739346 111.776126,23.5054332 C111.34316,23.9369319 111.100496,24.5235029 111.102062,25.13477 L111.102062,25.13477 Z" id="Shape" fill="#FFFFFF"></path>
                <path d="M45.82619,8.731 C46.6151366,8.67438418 47.3878923,8.97454743 47.9317613,9.54887182 C48.4756303,10.1231962 48.7332859,10.9111448 48.63381,11.69584 C48.63381,13.60209 47.60354,14.69784 45.82619,14.69784 L43.67092,14.69784 L43.67092,8.731 L45.82619,8.731 Z M44.59767,13.854 L45.72267,13.854 C46.2864919,13.887702 46.8354865,13.665559 47.2172185,13.2492518 C47.5989505,12.8329446 47.7727796,12.2667944 47.69044,11.708 C47.766789,11.1515245 47.5904566,10.5900462 47.2096711,10.177134 C46.8288856,9.76422175 46.2834957,9.5430863 45.72267,9.57421 L44.59767,9.57421 L44.59767,13.854 Z" id="Shape" fill="#FFFFFF"></path>
                <path d="M49.68068,12.44434 C49.6034671,11.6372251 49.9904837,10.8561119 50.6794159,10.4285974 C51.3683482,10.0010828 52.2400818,10.0010828 52.9290141,10.4285974 C53.6179463,10.8561119 54.0049629,11.6372251 53.92775,12.44434 C54.0064319,13.2523223 53.6197687,14.0349504 52.9302255,14.4633853 C52.2406824,14.8918202 51.3677476,14.8918202 50.6782045,14.4633853 C49.9886613,14.0349504 49.6019981,13.2523223 49.68068,12.44434 Z M53.01369,12.44434 C53.01369,11.46827 52.5752,10.89747 51.80568,10.89747 C51.03322,10.89747 50.59868,11.46827 50.59868,12.44435 C50.59868,13.42824 51.03325,13.99464 51.80568,13.99464 C52.57522,13.99464 53.01369,13.42432 53.01369,12.44434 L53.01369,12.44434 Z" id="Shape" fill="#FFFFFF"></path>
                <polygon id="Shape" fill="#FFFFFF" points="59.57326 14.69775 58.65139 14.69775 57.72073 11.38134 57.65042 11.38134 56.72366 14.69775 55.81057 14.69775 54.56936 10.19482 55.47073 10.19482 56.27737 13.63082 56.34378 13.63082 57.26956 10.19482 58.1221 10.19482 59.04788 13.63082 59.11819 13.63082 59.92092 10.19482 60.80959 10.19482"></polygon>
                <path d="M61.85353,10.19482 L62.709,10.19482 L62.709,10.91015 L62.77541,10.91015 C63.0063449,10.3834779 63.5459729,10.0613075 64.11916,10.1079 C64.5629768,10.0745318 64.9978859,10.2447899 65.3010908,10.5706021 C65.6042957,10.8964142 65.7428931,11.3424238 65.67775,11.7827 L65.67775,14.6977 L64.78908,14.6977 L64.78908,12.00586 C64.78908,11.28223 64.47463,10.92236 63.8174,10.92236 C63.5163658,10.9083391 63.2242202,11.0264826 63.0175546,11.2458168 C62.810889,11.465151 62.710315,11.763801 62.7422,12.06347 L62.7422,14.69775 L61.85353,14.69775 L61.85353,10.19482 Z" id="Shape" fill="#FFFFFF"></path>
                <polygon id="Shape" fill="#FFFFFF" points="67.09377 8.437 67.98244 8.437 67.98244 14.69774 67.09377 14.69774"></polygon>
                <path d="M69.21779,12.44434 C69.1406364,11.6371722 69.527714,10.8560394 70.2166974,10.4285182 C70.9056808,10.000997 71.7774592,10.000997 72.4664426,10.4285182 C73.155426,10.8560394 73.5425036,11.6371722 73.46535,12.44434 C73.543932,13.2523512 73.1571979,14.0349572 72.4676205,14.4633732 C71.7780432,14.8917893 70.9050968,14.8917893 70.2155195,14.4633732 C69.5259421,14.0349572 69.139208,13.2523512 69.21779,12.44434 L69.21779,12.44434 Z M72.5508,12.44434 C72.5508,11.46827 72.11231,10.89747 71.34279,10.89747 C70.57033,10.89747 70.13579,11.46827 70.13579,12.44435 C70.13579,13.42824 70.57036,13.99464 71.34279,13.99464 C72.11232,13.99464 72.5508,13.42432 72.5508,12.44434 L72.5508,12.44434 Z" id="Shape" fill="#FFFFFF"></path>
                <path d="M74.4009,13.42432 C74.4009,12.61377 75.00442,12.14649 76.0757,12.08008 L77.29543,12.00977 L77.29543,11.6211 C77.29543,11.14551 76.98098,10.87696 76.37356,10.87696 C75.87747,10.87696 75.53372,11.05909 75.43508,11.37745 L74.57473,11.37745 C74.66555,10.60401 75.39309,10.10792 76.41457,10.10792 C77.54348,10.10792 78.1802,10.66992 78.1802,11.6211 L78.1802,14.69776 L77.32473,14.69776 L77.32473,14.06495 L77.25442,14.06495 C76.9638686,14.5270763 76.4471736,14.7971632 75.90188,14.77195 C75.5196161,14.8117118 75.1383711,14.6879107 74.8523958,14.4311524 C74.5664205,14.1743942 74.4024061,13.8086433 74.4009,13.42432 L74.4009,13.42432 Z M77.29543,13.03955 L77.29543,12.66309 L76.19582,12.7334 C75.5757,12.7749 75.29445,12.98584 75.29445,13.38281 C75.29445,13.78808 75.64601,14.02392 76.12945,14.02392 C76.4156361,14.0528899 76.7013264,13.9644751 76.9211204,13.7789156 C77.1409144,13.5933561 77.2759916,13.3265411 77.29543,13.03955 Z" id="Shape" fill="#FFFFFF"></path>
                <path d="M79.34816,12.44434 C79.34816,11.02149 80.07961,10.12012 81.2173,10.12012 C81.7917768,10.0936501 82.3298275,10.4014729 82.59816,10.91012 L82.66457,10.91012 L82.66457,8.437 L83.55324,8.437 L83.55324,14.69774 L82.70168,14.69774 L82.70168,13.98631 L82.63137,13.98631 C82.3427542,14.490737 81.7980745,14.7933565 81.21731,14.77195 C80.0718,14.772 79.34816,13.87061 79.34816,12.44434 Z M80.26616,12.44434 C80.26616,13.39942 80.71636,13.97413 81.46929,13.97413 C82.21829,13.97413 82.6812,13.39113 82.6812,12.44825 C82.6812,11.50977 82.21343,10.91846 81.46929,10.91846 C80.72121,10.91846 80.26613,11.49707 80.26613,12.44434 L80.26616,12.44434 Z" id="Shape" fill="#FFFFFF"></path>
                <path d="M87.23,12.44434 C87.1527871,11.6372251 87.5398037,10.8561119 88.2287359,10.4285974 C88.9176682,10.0010828 89.7894018,10.0010828 90.4783341,10.4285974 C91.1672663,10.8561119 91.5542829,11.6372251 91.47707,12.44434 C91.5557519,13.2523223 91.1690887,14.0349504 90.4795455,14.4633853 C89.7900024,14.8918202 88.9170676,14.8918202 88.2275245,14.4633853 C87.5379813,14.0349504 87.1513181,13.2523223 87.23,12.44434 L87.23,12.44434 Z M90.563,12.44434 C90.563,11.46827 90.12452,10.89747 89.355,10.89747 C88.58254,10.89747 88.148,11.46827 88.148,12.44435 C88.148,13.42824 88.58257,13.99464 89.355,13.99464 C90.12453,13.99464 90.563,13.42432 90.563,12.44434 Z" id="Shape" fill="#FFFFFF"></path>
                <path d="M92.66945,10.19482 L93.52492,10.19482 L93.52492,10.91015 L93.59133,10.91015 C93.8222649,10.3834779 94.3618929,10.0613075 94.93508,10.1079 C95.3788968,10.0745318 95.8138059,10.2447899 96.1170108,10.5706021 C96.4202157,10.8964142 96.5588131,11.3424238 96.49367,11.7827 L96.49367,14.6977 L95.605,14.6977 L95.605,12.00586 C95.605,11.28223 95.29055,10.92236 94.63332,10.92236 C94.3322858,10.9083391 94.0401402,11.0264826 93.8334746,11.2458168 C93.626809,11.465151 93.526235,11.763801 93.55812,12.06347 L93.55812,14.69775 L92.66945,14.69775 L92.66945,10.19482 Z" id="Shape" fill="#FFFFFF"></path>
                <path d="M101.51516,9.07373 L101.51516,10.21533 L102.49075,10.21533 L102.49075,10.96387 L101.51516,10.96387 L101.51516,13.2793 C101.51516,13.75098 101.7095,13.95752 102.15188,13.95752 C102.265136,13.9571575 102.378277,13.9503097 102.49075,13.93701 L102.49075,14.67724 C102.33116,14.7057907 102.169466,14.72098 102.00735,14.72265 C101.01907,14.72265 100.62551,14.37499 100.62551,13.50683 L100.62551,10.96383 L99.91067,10.96383 L99.91067,10.21529 L100.62551,10.21529 L100.62551,9.07373 L101.51516,9.07373 Z" id="Shape" fill="#FFFFFF"></path>
                <path d="M103.70461,8.437 L104.58547,8.437 L104.58547,10.91845 L104.65578,10.91845 C104.897808,10.3871686 105.44688,10.0645875 106.02878,10.11181 C106.470077,10.0877973 106.899098,10.2618037 107.198989,10.5864339 C107.49888,10.911064 107.638405,11.3525056 107.57956,11.79052 L107.57956,14.69775 L106.69,14.69775 L106.69,12.00975 C106.69,11.29051 106.355,10.92625 105.72711,10.92625 C105.417939,10.9008937 105.113339,11.013291 104.894742,11.2333935 C104.676146,11.453496 104.565842,11.7588603 104.59332,12.06785 L104.59332,14.69775 L103.70465,14.69775 L103.70461,8.437 Z" id="Shape" fill="#FFFFFF"></path>
                <path d="M112.76125,13.48193 C112.512057,14.3313095 111.690099,14.880103 110.81008,14.78466 C110.209644,14.8005102 109.632591,14.5516307 109.232028,14.1040552 C108.831465,13.6564796 108.647886,13.0554559 108.73,12.46045 C108.650067,11.8637905 108.832958,11.2618037 109.231291,10.810447 C109.629623,10.3590902 110.204202,10.1027768 110.80617,10.10791 C112.0591,10.10791 112.81496,10.96391 112.81496,12.37791 L112.81496,12.688 L109.63527,12.688 L109.63527,12.7378 C109.607132,13.0719401 109.721251,13.4024478 109.949561,13.6480407 C110.177871,13.8936336 110.499188,14.0315239 110.83449,14.0278 C111.269262,14.0799947 111.692483,13.864333 111.90578,13.4819 L112.76125,13.48193 Z M109.63525,12.03076 L111.90966,12.03076 C111.932313,11.7251604 111.824858,11.4242051 111.613777,11.2020591 C111.402695,10.9799131 111.107617,10.8572362 110.80126,10.86426 C110.490752,10.8603589 110.191828,10.9820212 109.972296,11.2016489 C109.752765,11.4212765 109.631233,11.7202537 109.63527,12.03076 L109.63525,12.03076 Z" id="Shape" fill="#FFFFFF"></path>
            </g>
        </g>
    </g>
</svg>